# xmcd database file
#
# Track frame offsets:
# 150
# 12406
# 26157
# 41255
# 53857
# 69880
# 86536
# 98063
# 111803
# 127952
# 144691
# 158537
# 169594
# 180550
# 190968
# 202465
#
# Disc length: 2864 seconds
#
# Revision: 0
# Processed by: cddbd v1.5.2PL0 Copyright (c) Steve Scherf et al.
# Submitted via: CD-Runner 2006.50
#
DISCID=d40b2e10
DTITLE=Frankie Laine - Greatest Hits - 40 Original Recordings [CD 2)
DYEAR=1900
DGENRE=Country
TTITLE0=By The River Ste.Marie
TTITLE1=(What Did I Do To Be So)  Black And Blue
TTITLE2=That's My Desire
TTITLE3=Blue Turning Grey Over You
TTITLE4=That Lucky Old Sun
TTITLE5=Baby, That Ain't Right
TTITLE6=Shine
TTITLE7=Rockin' Chair
TTITLE8=We'll Be Together Again
TTITLE9=West End Blues
TTITLE10=Give Me A Kiss
TTITLE11=On The Sunny Side Of The Street
TTITLE12=The 3.10 To Yuma
TTITLE13=Gun Fight At O.K. Corral
TTITLE14=I Let Her Go
TTITLE15=The Tarrier Song
EXTD=
EXTT0=
EXTT1=
EXTT2=
EXTT3=
EXTT4=
EXTT5=
EXTT6=
EXTT7=
EXTT8=
EXTT9=
EXTT10=
EXTT11=
EXTT12=
EXTT13=
EXTT14=
EXTT15=
PLAYORDER=
